<?xml version="1.0" encoding="UTF-8" standalone="no"?>
<svg width="197px" height="275px" viewBox="0 0 197 275" version="1.1" xmlns="http://www.w3.org/2000/svg" xmlns:xlink="http://www.w3.org/1999/xlink">
    <!-- Generator: Sketch 39.1 (31720) - http://www.bohemiancoding.com/sketch -->
    <title>Lines</title>
    <desc>Created with Sketch.</desc>
    <defs></defs>
    <g id="Page-1" stroke="none" stroke-width="1" fill="none" fill-rule="evenodd">
        <g id="Desktop" transform="translate(-614.000000, -184.000000)" stroke="#003176" stroke-width="1.75">
            <g id="Lines" transform="translate(712.500000, 321.500000) rotate(-90.000000) translate(-712.500000, -321.500000) translate(576.000000, 224.000000)">
                <g transform="translate(0.000000, 50.000000)">
                    <path d="M80,29 C82.209139,29 84,27.209139 84,25 C84,22.790861 82.209139,21 80,21 C77.790861,21 76,22.790861 76,25 C76,27.209139 77.790861,29 80,29 Z" id="Oval" fill="#174C96"></path>
                    <path d="M79.875,30.5 L79.875,113.650467" id="Line" stroke-linecap="square"></path>
                    <path d="M130.410172,63.3860857 L80,113.796259" id="Line" stroke-linecap="square"></path>
                    <path d="M131.000001,48.490939 L131.000001,62.2907495" id="Line" stroke-linecap="square"></path>
                    <path d="M202.432434,1.36382353 L80,123.796259" id="Line" stroke-linecap="square"></path>
                    <path d="M176.907652,93.3638235 L143.567566,126.70391" id="Line" stroke-linecap="square" transform="translate(160.237609, 110.033867) scale(-1, 1) translate(-160.237609, -110.033867) "></path>
                    <path d="M202.432434,11.3638235 L73.381011,140.415253" id="Line" stroke-linecap="square"></path>
                    <path d="M203,58.6287727 L203,11" id="Line" stroke-linecap="square"></path>
                    <path d="M250.628773,59 L203,59" id="Line" stroke-linecap="square"></path>
                    <path d="M78.6287727,124 L4.45785558,124" id="Line" stroke-linecap="square"></path>
                    <path d="M72.5,141 L49.4945658,141" id="Line" stroke-linecap="square"></path>
                    <circle id="Oval" fill="#174C96" cx="4" cy="124" r="4"></circle>
                    <circle id="Oval" fill="#174C96" cx="249" cy="59" r="4"></circle>
                    <circle id="Oval" fill="#174C96" cx="144" cy="93" r="4"></circle>
                    <circle id="Oval" fill="#174C96" cx="131" cy="45" r="4"></circle>
                    <g id="Group" transform="translate(224.599976, 9.699997) scale(-1, 1) translate(-224.599976, -9.699997) translate(202.599976, 0.199997)">
                        <path d="M17.4101715,1.38608566 L4.79600447,14.0002527" id="Line" stroke-linecap="square"></path>
                        <path d="M43.6287727,1 L18.4950261,1" id="Line" stroke-linecap="square"></path>
                        <circle id="Oval" fill="#174C96" cx="4" cy="15" r="4"></circle>
                    </g>
                    <circle id="Oval" fill="#174C96" cx="177" cy="127" r="4"></circle>
                    <circle id="Oval" fill="#174C96" cx="46" cy="141" r="4"></circle>
                </g>
                <g transform="translate(182.000000, 62.000000) scale(-1, 1) translate(-182.000000, -62.000000) translate(91.000000, 0.000000)">
                    <circle id="Oval" fill="#174C96" cx="81" cy="4" r="4"></circle>
                    <path d="M80.875,9.5 L80.875,61.5013504" id="Line" stroke-linecap="square"></path>
                    <path d="M131.410172,42.3860857 L96.8928808,76.9033775" id="Line" stroke-linecap="square"></path>
                    <path d="M132.000001,27.490939 L132.000001,41.2907495" id="Line" stroke-linecap="square"></path>
                    <path d="M157.484133,26.3121272 L101.502996,82.2932623" id="Line" stroke-linecap="square"></path>
                    <path d="M177.907652,72.3638235 L144.567566,105.70391" id="Line" stroke-linecap="square" transform="translate(161.237609, 89.033867) scale(-1, 1) translate(-161.237609, -89.033867) "></path>
                    <path d="M93.5014191,101 L71.4489262,101" id="Line" stroke-linecap="square"></path>
                    <path d="M69.5020503,98 L8.48660844,98" id="Line" stroke-linecap="square"></path>
                    <circle id="Oval" fill="#174C96" cx="4" cy="98" r="4"></circle>
                    <circle id="Oval" fill="#174C96" cx="145" cy="72" r="4"></circle>
                    <circle id="Oval" fill="#174C96" cx="132" cy="24" r="4"></circle>
                    <g id="Group" transform="translate(124.599976, 71.199997) scale(-1, 1) translate(-124.599976, -71.199997) translate(86.599976, 21.199997)">
                        <g id="Group-2" transform="translate(61.000000, 79.800003)" stroke-linecap="square">
                            <path d="M7.41017151,0.386085659 L1.29490408,6.50135326" id="Line"></path>
                            <path d="M13.0436018,18.8164215 L1.31163478,7.08445445" id="Line"></path>
                        </g>
                        <circle id="Oval" fill="#174C96" cx="4.39996338" cy="4" r="4"></circle>
                    </g>
                    <circle id="Oval" fill="#174C96" cx="178" cy="106" r="4"></circle>
                    <g id="Group-3" transform="translate(7.700012, 116.000000)">
                        <path d="M80.5,4 L8.79824442,4" id="Line" stroke-linecap="square"></path>
                        <circle id="Oval" fill="#174C96" cx="4" cy="4" r="4"></circle>
                    </g>
                </g>
            </g>
        </g>
    </g>
</svg>